<svg width="12" height="13" viewBox="0 0 12 13" fill="none" xmlns="http://www.w3.org/2000/svg">
  <path d="M2.40625 5.4082C3.40625 7.3457 4.875 8.81445 6.8125 9.81445L8.28125 8.3457C8.48958 8.13737 8.71875 8.08529 8.96875 8.18945C9.71875 8.43945 10.5104 8.56445 11.3438 8.56445C11.5312 8.56445 11.6875 8.62695 11.8125 8.75195C11.9375 8.87695 12 9.0332 12 9.2207V11.5645C12 11.752 11.9375 11.9082 11.8125 12.0332C11.6875 12.1582 11.5312 12.2207 11.3438 12.2207C8.21875 12.2207 5.54167 11.1165 3.3125 8.9082C1.10417 6.67904 0 4.00195 0 0.876953C0 0.689453 0.0625 0.533203 0.1875 0.408203C0.3125 0.283203 0.46875 0.220703 0.65625 0.220703H3C3.1875 0.220703 3.34375 0.283203 3.46875 0.408203C3.59375 0.533203 3.65625 0.689453 3.65625 0.876953C3.65625 1.71029 3.78125 2.50195 4.03125 3.25195C4.11458 3.52279 4.0625 3.75195 3.875 3.93945L2.40625 5.4082Z"/>
</svg>
