<svg width="21" height="22" viewBox="0 0 21 22" fill="none" xmlns="http://www.w3.org/2000/svg">
<path style="fill: transparent;" d="M0.875 0.916992H4.375L6.72 13.1912C6.80001 13.6132 7.01917 13.9923 7.3391 14.2621C7.65904 14.5319 8.05936 14.6752 8.47 14.667H16.975C17.3856 14.6752 17.786 14.5319 18.1059 14.2621C18.4258 13.9923 18.645 13.6132 18.725 13.1912L20.125 5.50033H5.25M8.75 19.2503C8.75 19.7566 8.35825 20.167 7.875 20.167C7.39175 20.167 7 19.7566 7 19.2503C7 18.7441 7.39175 18.3337 7.875 18.3337C8.35825 18.3337 8.75 18.7441 8.75 19.2503ZM18.375 19.2503C18.375 19.7566 17.9832 20.167 17.5 20.167C17.0168 20.167 16.625 19.7566 16.625 19.2503C16.625 18.7441 17.0168 18.3337 17.5 18.3337C17.9832 18.3337 18.375 18.7441 18.375 19.2503Z" stroke="white" stroke-width="2.51852" stroke-linecap="round" stroke-linejoin="round"/>
</svg>
