<svg width="18" height="18" viewBox="0 0 18 18" fill="none" xmlns="http://www.w3.org/2000/svg">
<path d="M13.0078 14.793C13.3464 14.4544 13.737 14.2852 14.1797 14.2852C14.6224 14.2852 15 14.4544 15.3125 14.793C15.651 15.1315 15.8203 15.5221 15.8203 15.9648C15.8203 16.4076 15.651 16.7982 15.3125 17.1367C15 17.4492 14.6224 17.6055 14.1797 17.6055C13.737 17.6055 13.3464 17.4492 13.0078 17.1367C12.6693 16.7982 12.5 16.4076 12.5 15.9648C12.5 15.5221 12.6693 15.1315 13.0078 14.793ZM0.820312 0.964844H3.55469L4.33594 2.60547H16.6797C16.9141 2.60547 17.1094 2.69661 17.2656 2.87891C17.4219 3.03516 17.5 3.23047 17.5 3.46484C17.5 3.49089 17.4609 3.62109 17.3828 3.85547L14.4141 9.24609C14.1016 9.81901 13.6198 10.1055 12.9688 10.1055H6.75781L6.01562 11.4727L5.97656 11.5898C5.97656 11.7201 6.04167 11.7852 6.17188 11.7852H15.8203V13.4648H5.82031C5.3776 13.4648 4.98698 13.2956 4.64844 12.957C4.33594 12.6185 4.17969 12.2279 4.17969 11.7852C4.17969 11.5247 4.24479 11.2643 4.375 11.0039L5.50781 8.93359L2.5 2.60547H0.820312V0.964844ZM4.64844 14.793C4.98698 14.4544 5.3776 14.2852 5.82031 14.2852C6.26302 14.2852 6.65365 14.4544 6.99219 14.793C7.33073 15.1315 7.5 15.5221 7.5 15.9648C7.5 16.4076 7.33073 16.7982 6.99219 17.1367C6.65365 17.4492 6.26302 17.6055 5.82031 17.6055C5.3776 17.6055 4.98698 17.4492 4.64844 17.1367C4.33594 16.7982 4.17969 16.4076 4.17969 15.9648C4.17969 15.5221 4.33594 15.1315 4.64844 14.793Z" fill="white"/>
</svg>
