<svg width="28" height="16" viewBox="0 0 28 16" fill="none" xmlns="http://www.w3.org/2000/svg">
<path d="M26.7688 3.51723C26.0127 2.69807 24.9357 2.24553 23.7385 2.24553H20.8571V0.687406C20.8571 0.309333 20.5478 0 20.1697 0H6.4445C6.06642 0 5.75709 0.309333 5.75709 0.687406V3.08187H3.08194C2.70386 3.08187 2.39453 3.3912 2.39453 3.76928C2.39453 4.14735 2.70386 4.45668 3.08194 4.45668H6.42731C6.43304 4.45668 6.43877 4.45668 6.4445 4.45668C6.4445 4.45668 6.4445 4.45668 6.45023 4.45668C6.8283 4.45668 7.13763 4.14735 7.13763 3.76928V1.37481H19.488V2.93293V12.1499H13.015C12.9863 12.1499 12.9577 12.1499 12.929 12.1556C12.5853 11.3078 11.7547 10.7063 10.7866 10.7063C9.81279 10.7063 8.98217 11.3136 8.6442 12.1671C8.59264 12.1556 8.54681 12.1499 8.49526 12.1499H7.13763V9.74971C7.13763 9.37164 6.8283 9.0623 6.45023 9.0623C6.43877 9.0623 6.42731 9.0623 6.41586 9.0623C6.4044 9.0623 6.39867 9.0623 6.38721 9.0623H3.08194C2.70386 9.0623 2.39453 9.37164 2.39453 9.74971C2.39453 10.1278 2.70386 10.4371 3.08194 10.4371H5.75709V12.8316C5.75709 13.2097 6.06642 13.519 6.4445 13.519H8.48953C8.50672 13.519 8.51817 13.519 8.53536 13.519C8.76449 14.5501 9.68676 15.3177 10.7866 15.3177C11.8865 15.3177 12.803 14.5501 13.0379 13.519H20.1754H21.2753C21.5101 14.5444 22.4267 15.3177 23.5265 15.3177C24.6264 15.3177 25.5429 14.5501 25.7778 13.519H27.313C27.6911 13.519 28.0004 13.2097 28.0004 12.8316V7.12038C28.0004 5.63673 27.5708 4.38794 26.7688 3.51723ZM10.7866 13.9486C10.2711 13.9486 9.85289 13.5304 9.85289 13.0149C9.85289 12.4993 10.2711 12.0812 10.7866 12.0812C11.3022 12.0812 11.7203 12.4993 11.7203 13.0149C11.7203 13.5304 11.3022 13.9486 10.7866 13.9486ZM23.5265 13.9486C23.011 13.9486 22.5928 13.5304 22.5928 13.0149C22.5928 12.4993 23.011 12.0812 23.5265 12.0812C24.0421 12.0812 24.4603 12.4993 24.4603 13.0149C24.4545 13.5304 24.0364 13.9486 23.5265 13.9486ZM26.6256 12.1499H25.6632C25.3195 11.3078 24.4889 10.7063 23.5265 10.7063C22.5642 10.7063 21.7336 11.3021 21.3899 12.1499H20.8628V3.62034H23.7442C25.5487 3.62034 26.6256 4.93214 26.6256 7.12611V12.1499Z" fill="#EC2129"/>
<path d="M11.8062 8.04989C11.537 8.31912 11.537 8.75448 11.8062 9.02371C11.938 9.15546 12.1155 9.22421 12.2931 9.22421C12.4707 9.22421 12.6425 9.15546 12.78 9.02371L14.5501 7.25364L14.5558 7.24791C14.5673 7.23073 14.5845 7.21927 14.5959 7.20208C14.6016 7.19063 14.6074 7.1849 14.6131 7.17344C14.6188 7.16199 14.6246 7.15626 14.636 7.1448C14.6417 7.13334 14.6475 7.12189 14.6532 7.11043C14.6589 7.09897 14.6647 7.09325 14.6704 7.08179C14.6761 7.07033 14.6818 7.05888 14.6876 7.04742C14.6933 7.03596 14.699 7.03023 14.699 7.01878C14.7048 7.00732 14.7048 6.99586 14.7105 6.98441C14.7162 6.97295 14.7162 6.96149 14.7219 6.95576C14.7277 6.94431 14.7277 6.93285 14.7277 6.92139C14.7277 6.90994 14.7334 6.89848 14.7334 6.88702C14.7334 6.87557 14.7391 6.86411 14.7391 6.84693C14.7391 6.83547 14.7449 6.82974 14.7449 6.81828C14.7506 6.77246 14.7506 6.72663 14.7449 6.6808C14.7449 6.66935 14.7449 6.66362 14.7391 6.65216C14.7391 6.6407 14.7334 6.62925 14.7334 6.61206C14.7334 6.60061 14.7277 6.58915 14.7277 6.57769C14.7277 6.56623 14.7219 6.55478 14.7219 6.54332C14.7162 6.53186 14.7162 6.52041 14.7105 6.51468C14.7048 6.50322 14.7048 6.49177 14.699 6.48031C14.6933 6.46885 14.6876 6.46312 14.6876 6.45167C14.6818 6.44021 14.6761 6.42875 14.6704 6.4173C14.6647 6.40584 14.6589 6.40011 14.6532 6.38865C14.6475 6.3772 14.6417 6.36574 14.636 6.35428C14.6303 6.34283 14.6246 6.3371 14.6131 6.32564C14.6074 6.31419 14.6016 6.30846 14.5959 6.297C14.5845 6.27982 14.5673 6.26836 14.5558 6.25117L14.5501 6.24544L12.8659 4.5613C12.5967 4.29207 12.1614 4.29207 11.8921 4.5613C11.6229 4.83053 11.6229 5.26589 11.8921 5.53513L12.4019 6.04495H0.687406C0.309333 6.04495 0 6.35428 0 6.73236C0 7.11043 0.309333 7.41976 0.687406 7.41976H12.3962L11.8062 8.04989Z" fill="#EC2129"/>
</svg>
